#!OML:ASF E:\motion texture\Top Level 1\Subject 1\Session 1\male.ASF
:FULLY-SPECIFIED
:DEGREES
378
root 14.052 17.8527 5.42761 521.495 -93.1618 -520.661
lowerback 1.66589 -2.27219 -3.41581
upperback -2.68722 -3.12921 1.39218
thorax -3.44446 -1.45743 3.48908
lowerneck -21.5196 -4.87857 -7.28534
upperneck 18.2606 -6.38408 8.17266
head 9.85426 -2.56889 3.11659
rclavicle -3.48619e-014 3.97569e-015
rhumerus -56.6472 6.80198 -81.6261
rradius 56.314
rwrist -2.45568
rhand -17.9432 -10.3284
rfingers 7.12502
rthumb 8.32518 -40.1444
lclavicle -3.48619e-014 3.97569e-015
lhumerus -22.2523 -21.5979 101.191
lradius 57.0406
lwrist 0.438616
lhand -17.7672 7.08905
lfingers 7.12502
lthumb 8.49501 36.8982
rfemur -45.6767 -9.63258 17.6479
rtibia 74.6749
rfoot 3.65174 -177.251
rtoes 10.5957
lfemur -8.55775 -5.36091 -25.7509
ltibia 23.3769
lfoot 348.684 -2.47635
ltoes 5.2052
379
root 13.9425 17.8788 5.42449 522.977 -93.7984 -522.343
lowerback 2.06786 -2.58442 -3.59839
upperback -2.67106 -3.5625 1.47036
thorax -3.60347 -1.66307 3.70954
lowerneck -21.5268 -4.70065 -7.19209
upperneck 18.291 -6.13421 8.03683
head 9.83625 -2.46132 3.09231
rclavicle 3.33461e-014 -1.03368e-014
rhumerus -58.1981 6.85893 -80.8462
rradius 56.5732
rwrist -2.69296
rhand -17.7622 -10.2298
rfingers 7.12502
rthumb 8.49981 -40.0388
lclavicle 3.33461e-014 -1.03368e-014
lhumerus -20.9703 -22.8275 100.819
lradius 58.4287
lwrist 1.01415
lhand -17.6361 7.25992
lfingers 7.12502
lthumb 8.62148 37.0639
rfemur -48.4881 -10.1314 17.7631
rtibia 72.6501
rfoot 3.31589 -178.275
rtoes 10.7082
lfemur -7.65722 -5.56944 -25.9111
ltibia 22.8277
lfoot 348.742 -2.88415
ltoes 5.23555
380
root 13.8325 17.9023 5.42006 524.111 -94.3939 -523.697
lowerback 2.47864 -2.88008 -3.75177
upperback -2.64036 -3.97409 1.54219
thorax -3.75273 -1.85871 3.91019
lowerneck -21.5424 -4.53044 -7.09089
upperneck 18.3042 -5.90025 7.91871
head 9.81607 -2.35845 3.07009
rclavicle -4.35587e-014 1.74931e-014
rhumerus -59.6944 6.961 -80.104
rradius 56.8789
rwrist -2.9611
rhand -17.5696 -10.1282
rfingers 7.12502
rthumb 8.68573 -39.9295
lclavicle -4.35587e-014 1.74931e-014
lhumerus -19.6762 -23.9883 100.298
lradius 59.7779
lwrist 1.64853
lhand -17.4434 7.43819
lfingers 7.12502
lthumb 8.80748 37.2344
rfemur -51.2119 -10.5597 17.912
rtibia 70.885
rfoot 3.00594 -179.199
rtoes 10.8033
lfemur -6.76311 -5.68975 -26.0155
ltibia 22.3288
lfoot 348.803 -3.34757
ltoes 5.28188
381
root 13.7218 17.9232 5.41504 524.902 -94.927 -524.71
lowerback 2.8743 -3.15237 -3.87675
upperback -2.59704 -4.35385 1.60466
thorax -3.8828 -2.03975 4.08604
lowerneck -21.5812 -4.36922 -6.9857
upperneck 18.3095 -5.68263 7.81929
head 9.79977 -2.2602 3.0509
rclavicle 2.70099e-014 -1.19271e-015
rhumerus -61.1197 7.09858 -79.4005
rradius 57.2042
rwrist -3.203
rhand -17.3915 -10.0107
rfingers 7.12502
rthumb 8.85753 -39.8048
lclavicle 2.70099e-014 -1.19271e-015
lhumerus -18.3542 -25.0692 99.6341
lradius 61.0631
lwrist 2.28626
lhand -17.2228 7.55555
lfingers 7.12502
lthumb 9.02035 37.3427
rfemur -53.8688 -10.8977 18.0798
rtibia 69.3656
rfoot 2.72749 -180.023
rtoes 10.8676
lfemur -5.89387 -5.74804 -26.0829
ltibia 21.8773
lfoot 348.866 -3.81454
ltoes 5.34015
382
root 13.6101 17.9419 5.40952 525.325 -95.396 -525.34
lowerback 3.23974 -3.39938 -3.98994
upperback -2.54908 -4.69944 1.65558
thorax -3.99359 -2.20468 4.24253
lowerneck -21.64 -4.2182 -6.87103
upperneck 18.3103 -5.48179 7.72399
head 9.78724 -2.16809 3.02872
rclavicle -9.81499e-015 -8.34896e-015
rhumerus -62.4645 7.26713 -78.7367
rradius 57.5214
rwrist -3.39
rhand -17.2483 -9.90684
rfingers 7.12502
rthumb 8.99574 -39.695
lclavicle -9.81499e-015 -8.34896e-015
lhumerus -17.0122 -26.0546 98.8457
lradius 62.2775
lwrist 2.85054
lhand -16.9902 7.60998
lfingers 7.12502
lthumb 9.24476 37.3873
rfemur -56.4698 -11.1454 18.2496
rtibia 68.091
rfoot 2.49967 -180.726
rtoes 10.8971
lfemur -5.06192 -5.77118 -26.1381
ltibia 21.4688
lfoot 348.923 -4.24791
ltoes 5.37934
383
root 13.4973 17.9589 5.40364 525.411 -95.8 -525.604
lowerback 3.56004 -3.61966 -4.09944
upperback -2.49863 -5.00871 1.69309
thorax -4.07934 -2.35247 4.38018
lowerneck -21.7177 -4.07834 -6.74786
upperneck 18.3053 -5.29843 7.63132
head 9.77782 -2.08276 3.00313
rclavicle 4.94477e-015 9.54166e-015
rhumerus -63.7175 7.4569 -78.1133
rradius 57.8086
rwrist -3.49528
rhand -17.1251 -9.80354
rfingers 7.12502
rthumb 9.11468 -39.5866
lclavicle 4.94477e-015 9.54166e-015
lhumerus -15.6426 -26.9252 97.9472
lradius 63.3944
lwrist 3.25894
lhand -16.7326 7.59051
lfingers 7.12502
lthumb 9.49336 37.3567
rfemur -59.0201 -11.3074 18.4122
rtibia 67.049
rfoot 2.32655 -181.287
rtoes 10.8704
lfemur -4.27468 -5.78057 -26.1984
ltibia 21.0964
lfoot 348.969 -4.61592
ltoes 5.40528
384
root 13.383 17.9745 5.39767 525.133 -96.1356 -525.468
lowerback 3.82648 -3.81145 -4.21589
upperback -2.4539 -5.27962 1.71647
thorax -4.14361 -2.48171 4.50277
lowerneck -21.7929 -3.94747 -6.61751
upperneck 18.2922 -5.12915 7.53583
head 9.76636 -2.00389 2.97307
rclavicle -3.86388e-014 1.74931e-014
rhumerus -64.8867 7.67259 -77.5366
rradius 58.0581
rwrist -3.53992
rhand -17.0373 -9.73583
rfingers 7.12502
rthumb 9.19938 -39.5152
lclavicle -3.86388e-014 1.74931e-014
lhumerus -14.2627 -27.6719 96.9681
lradius 64.399
lwrist 3.47815
lhand -16.4805 7.50902
lfingers 7.12502
lthumb 9.73663 37.264
rfemur -61.5211 -11.3853 18.5594
rtibia 66.2438
rfoot 2.22171 -181.689
rtoes 10.8378
lfemur -3.5323 -5.77895 -26.2814
ltibia 20.7477
lfoot 349.002 -4.90239
ltoes 5.38238
